<svg width="872" height="744" xmlns="http://www.w3.org/2000/svg" xmlns:xlink="http://www.w3.org/1999/xlink" xmlns:svgjs="http://svgjs.com/svgjs" viewBox="494 0 872 744"><svg width="872" height="744" xmlns="http://www.w3.org/2000/svg" xmlns:xlink="http://www.w3.org/1999/xlink" xmlns:svgjs="http://svgjs.com/svgjs" viewBox="0 0.349 872 743.301" fill="#6bbc61" x="494"><svg xmlns="http://www.w3.org/2000/svg" xmlns:xlink="http://www.w3.org/1999/xlink" width="872" height="744" viewBox="0 0 872 743.301"><path paint-order="stroke fill markers" fill-rule="evenodd" d="M872 0H0l221.312 618.425c26.914 75.21 94.411 124.876 169.709 124.876H872V0z"/></svg></svg><svg width="616" height="64" xmlns="http://www.w3.org/2000/svg" xmlns:xlink="http://www.w3.org/1999/xlink" xmlns:svgjs="http://svgjs.com/svgjs" viewBox="750 679 616 64" x="750" y="679"><svg width="616" height="64" xmlns="http://www.w3.org/2000/svg" xmlns:xlink="http://www.w3.org/1999/xlink" xmlns:svgjs="http://svgjs.com/svgjs" viewBox="0 0.456 616 63.087" fill="#369e5f" x="750" y="679"><svg xmlns="http://www.w3.org/2000/svg" xmlns:xlink="http://www.w3.org/1999/xlink" width="616" height="64" viewBox="0.757 0.99 615.243 63.01"><path paint-order="stroke fill markers" fill-rule="evenodd" d="M616 64V2.417L.757.99C34.607 39.392 81.826 64 135.02 64H616z"/></svg></svg><svg width="503" height="43" xmlns="http://www.w3.org/2000/svg" xmlns:xlink="http://www.w3.org/1999/xlink" xmlns:svgjs="http://svgjs.com/svgjs" viewBox="851 692 503 43" x="851" y="692"><svg width="224" height="39" xmlns="http://www.w3.org/2000/svg" xmlns:xlink="http://www.w3.org/1999/xlink" xmlns:svgjs="http://svgjs.com/svgjs" viewBox="851 696 224 39" x="851" y="696"><svg width="35" height="8" xmlns="http://www.w3.org/2000/svg" xmlns:xlink="http://www.w3.org/1999/xlink" xmlns:svgjs="http://svgjs.com/svgjs" viewBox="0 0.017 35 7.967" fill="#fff" opacity=".2" x="1014" y="696"><svg xmlns="http://www.w3.org/2000/svg" xmlns:xlink="http://www.w3.org/1999/xlink" width="35" height="8" viewBox="0.841 0.151 33.236 7.565"><path paint-order="stroke fill markers" fill-rule="evenodd" d="M17.458 7.716C8.268 7.716.841 6.026.841 3.934S8.269.15 17.458.15c9.19 0 16.618 1.69 16.618 3.783 0 2.091-7.428 3.782-16.618 3.782z"/></svg></svg><svg width="24" height="6" xmlns="http://www.w3.org/2000/svg" xmlns:xlink="http://www.w3.org/1999/xlink" xmlns:svgjs="http://svgjs.com/svgjs" viewBox="0 0.269 24 5.463" fill="#fff" opacity=".2" x="937" y="719"><svg xmlns="http://www.w3.org/2000/svg" xmlns:xlink="http://www.w3.org/1999/xlink" width="24" height="6" viewBox="0.807 0.653 22.887 5.209"><path paint-order="stroke fill markers" fill-rule="evenodd" d="M12.25 5.862C5.922 5.862.807 4.698.807 3.258.807 1.818 5.922.653 12.25.653c6.328 0 11.443 1.164 11.443 2.605 0 1.44-5.115 2.604-11.443 2.604z"/></svg></svg><svg width="9" height="3" xmlns="http://www.w3.org/2000/svg" xmlns:xlink="http://www.w3.org/1999/xlink" xmlns:svgjs="http://svgjs.com/svgjs" viewBox="0 0.476 9 2.048" fill="#fff" opacity=".2" x="851" y="706"><svg xmlns="http://www.w3.org/2000/svg" xmlns:xlink="http://www.w3.org/1999/xlink" width="9" height="3" viewBox="0.615 0.652 8.359 1.902"><path paint-order="stroke fill markers" fill-rule="evenodd" d="M4.794 2.555c-2.31 0-4.179-.426-4.179-.952s1.868-.95 4.18-.95c2.31 0 4.179.424 4.179.95s-1.868.952-4.18.952z"/></svg></svg><svg width="9" height="3" xmlns="http://www.w3.org/2000/svg" xmlns:xlink="http://www.w3.org/1999/xlink" xmlns:svgjs="http://svgjs.com/svgjs" viewBox="0 0.476 9 2.049" fill="#fff" opacity=".2" x="991" y="723"><svg xmlns="http://www.w3.org/2000/svg" xmlns:xlink="http://www.w3.org/1999/xlink" width="9" height="3" viewBox="0.391 0.911 8.359 1.903"><path paint-order="stroke fill markers" fill-rule="evenodd" d="M4.57 2.814c-2.31 0-4.179-.426-4.179-.952s1.868-.95 4.18-.95c2.31 0 4.179.424 4.179.95s-1.868.952-4.18.952z"/></svg></svg><svg width="29" height="8" xmlns="http://www.w3.org/2000/svg" xmlns:xlink="http://www.w3.org/1999/xlink" xmlns:svgjs="http://svgjs.com/svgjs" viewBox="0 0.699 29 6.601" fill="#fff" opacity=".2" x="1046" y="721"><svg xmlns="http://www.w3.org/2000/svg" xmlns:xlink="http://www.w3.org/1999/xlink" width="29" height="8" viewBox="0.267 0.638 28.329 6.448"><path paint-order="stroke fill markers" fill-rule="evenodd" d="M14.432 7.087C6.599 7.087.267 5.645.267 3.862.267 2.08 6.6.638 14.432.638c7.833 0 14.164 1.441 14.164 3.224 0 1.783-6.331 3.225-14.164 3.225z"/></svg></svg><svg width="22" height="6" xmlns="http://www.w3.org/2000/svg" xmlns:xlink="http://www.w3.org/1999/xlink" xmlns:svgjs="http://svgjs.com/svgjs" viewBox="0 0.496 22 5.008" fill="#fff" opacity=".2" x="871" y="729"><svg xmlns="http://www.w3.org/2000/svg" xmlns:xlink="http://www.w3.org/1999/xlink" width="22" height="6" viewBox="0.545 0.755 21.295 4.847"><path paint-order="stroke fill markers" fill-rule="evenodd" d="M11.192 5.602C5.304 5.602.545 4.518.545 3.178c0-1.34 4.76-2.423 10.647-2.423 5.888 0 10.648 1.083 10.648 2.423s-4.76 2.424-10.648 2.424z"/></svg></svg><svg width="26" height="6" xmlns="http://www.w3.org/2000/svg" xmlns:xlink="http://www.w3.org/1999/xlink" xmlns:svgjs="http://svgjs.com/svgjs" viewBox="0 0.041 26 5.918" fill="#fff" opacity=".2" x="918" y="697"><svg xmlns="http://www.w3.org/2000/svg" xmlns:xlink="http://www.w3.org/1999/xlink" width="26" height="6" viewBox="0.523 0.038 25.442 5.791"><path paint-order="stroke fill markers" fill-rule="evenodd" d="M13.245 5.83C6.21 5.83.523 4.534.523 2.933.523 1.332 6.21.038 13.245.038c7.034 0 12.72 1.294 12.72 2.896 0 1.6-5.686 2.895-12.72 2.895z"/></svg></svg></svg><svg width="224" height="40" xmlns="http://www.w3.org/2000/svg" xmlns:xlink="http://www.w3.org/1999/xlink" xmlns:svgjs="http://svgjs.com/svgjs" viewBox="1130 692 224 40" x="1130" y="692"><svg width="34" height="9" xmlns="http://www.w3.org/2000/svg" xmlns:xlink="http://www.w3.org/1999/xlink" xmlns:svgjs="http://svgjs.com/svgjs" viewBox="0 0.63 34 7.739" fill="#fff" opacity=".2" x="1157" y="692"><svg xmlns="http://www.w3.org/2000/svg" xmlns:xlink="http://www.w3.org/1999/xlink" width="34" height="9" viewBox="0.222 0.983 33.236 7.565"><path paint-order="stroke fill markers" fill-rule="evenodd" d="M16.84 8.548C7.65 8.548.221 6.858.221 4.765.222 2.674 7.65.983 16.839.983c9.19 0 16.618 1.69 16.618 3.782s-7.428 3.783-16.618 3.783z"/></svg></svg><svg width="24" height="6" xmlns="http://www.w3.org/2000/svg" xmlns:xlink="http://www.w3.org/1999/xlink" xmlns:svgjs="http://svgjs.com/svgjs" viewBox="0 0.269 24 5.463" fill="#fff" opacity=".2" x="1244" y="716"><svg xmlns="http://www.w3.org/2000/svg" xmlns:xlink="http://www.w3.org/1999/xlink" width="24" height="6" viewBox="0.604 0.485 22.887 5.21"><path paint-order="stroke fill markers" fill-rule="evenodd" d="M12.048 5.694C5.72 5.694.604 4.53.604 3.09.604 1.65 5.72.485 12.048.485c6.328 0 11.443 1.164 11.443 2.604 0 1.44-5.115 2.605-11.443 2.605z"/></svg></svg><svg width="9" height="3" xmlns="http://www.w3.org/2000/svg" xmlns:xlink="http://www.w3.org/1999/xlink" xmlns:svgjs="http://svgjs.com/svgjs" viewBox="0 0.476 9 2.049" fill="#fff" opacity=".2" x="1345" y="703"><svg xmlns="http://www.w3.org/2000/svg" xmlns:xlink="http://www.w3.org/1999/xlink" width="9" height="3" viewBox="0.324 0.484 8.359 1.903"><path paint-order="stroke fill markers" fill-rule="evenodd" d="M4.503 2.387c-2.31 0-4.18-.426-4.18-.952s1.87-.951 4.18-.951c2.311 0 4.18.425 4.18.951s-1.869.952-4.18.952z"/></svg></svg><svg width="9" height="3" xmlns="http://www.w3.org/2000/svg" xmlns:xlink="http://www.w3.org/1999/xlink" xmlns:svgjs="http://svgjs.com/svgjs" viewBox="0 0.476 9 2.048" fill="#fff" opacity=".2" x="1205" y="720"><svg xmlns="http://www.w3.org/2000/svg" xmlns:xlink="http://www.w3.org/1999/xlink" width="9" height="3" viewBox="0.548 0.743 8.359 1.902"><path paint-order="stroke fill markers" fill-rule="evenodd" d="M4.727 2.645c-2.31 0-4.179-.425-4.179-.95 0-.527 1.868-.952 4.18-.952 2.31 0 4.179.425 4.179.951s-1.868.951-4.18.951z"/></svg></svg><svg width="30" height="7" xmlns="http://www.w3.org/2000/svg" xmlns:xlink="http://www.w3.org/1999/xlink" xmlns:svgjs="http://svgjs.com/svgjs" viewBox="0 0.086 30 6.829" fill="#fff" opacity=".2" x="1130" y="718"><svg xmlns="http://www.w3.org/2000/svg" xmlns:xlink="http://www.w3.org/1999/xlink" width="30" height="7" viewBox="0.701 0.47 28.329 6.448"><path paint-order="stroke fill markers" fill-rule="evenodd" d="M14.866 6.918C7.033 6.918.7 5.478.7 3.694.701 1.911 7.033.47 14.866.47 22.699.47 29.03 1.91 29.03 3.694c0 1.783-6.332 3.224-14.165 3.224z"/></svg></svg><svg width="22" height="6" xmlns="http://www.w3.org/2000/svg" xmlns:xlink="http://www.w3.org/1999/xlink" xmlns:svgjs="http://svgjs.com/svgjs" viewBox="0 0.496 22 5.008" fill="#fff" opacity=".2" x="1312" y="726"><svg xmlns="http://www.w3.org/2000/svg" xmlns:xlink="http://www.w3.org/1999/xlink" width="22" height="6" viewBox="0.458 0.587 21.295 4.847"><path paint-order="stroke fill markers" fill-rule="evenodd" d="M11.105 5.434C5.217 5.434.458 4.35.458 3.01c0-1.34 4.76-2.423 10.647-2.423 5.888 0 10.648 1.083 10.648 2.423s-4.76 2.424-10.648 2.424z"/></svg></svg><svg width="26" height="7" xmlns="http://www.w3.org/2000/svg" xmlns:xlink="http://www.w3.org/1999/xlink" xmlns:svgjs="http://svgjs.com/svgjs" viewBox="0 0.541 26 5.918" fill="#fff" opacity=".2" x="1261" y="693"><svg xmlns="http://www.w3.org/2000/svg" xmlns:xlink="http://www.w3.org/1999/xlink" width="26" height="7" viewBox="0.332 0.87 25.442 5.791"><path paint-order="stroke fill markers" fill-rule="evenodd" d="M13.053 6.66C6.018 6.66.332 5.368.332 3.766.332 2.165 6.018.87 13.053.87s12.721 1.294 12.721 2.895c0 1.602-5.686 2.896-12.72 2.896z"/></svg></svg></svg></svg></svg><svg width="414" height="294" xmlns="http://www.w3.org/2000/svg" xmlns:xlink="http://www.w3.org/1999/xlink" xmlns:svgjs="http://svgjs.com/svgjs" viewBox="0 0.082 414 293.836" fill="#fff" opacity=".2" x="582" y="145"><svg xmlns="http://www.w3.org/2000/svg" xmlns:xlink="http://www.w3.org/1999/xlink" width="414" height="294" viewBox="0.115 0 413.79 293.687"><path paint-order="stroke fill markers" fill-rule="evenodd" d="M288.333 43C241 58.333 175 22 99 40 49.312 51.768 16.725 94.748.115 123.1l65.289 170.587c0-.006-20.527-218.076 151.792-218.297C389.519 75.169 309.239 0 413.905 0H352.5s-16.833 27.667-64.167 43z"/></svg></svg><svg width="359" height="196" xmlns="http://www.w3.org/2000/svg" xmlns:xlink="http://www.w3.org/1999/xlink" xmlns:svgjs="http://svgjs.com/svgjs" viewBox="0.246 0 358.509 196" fill="#fff" opacity=".2" x="1007" y="145"><svg xmlns="http://www.w3.org/2000/svg" width="359" height="196" viewBox="0.588 0 358.412 195.947"><path paint-order="stroke fill markers" fill-rule="evenodd" d="M.588 0H17s39.177 46.499 122.667 33c83.489-13.5 25.152 65.68 75.523 85.39 50.371 19.713 57.871-57.715 95.369-43 37.498 14.715 48.441 0 48.441 0v120.253s-26.57 5.764-39.785-32.94C306 124 267.38 177.408 215.19 162.704 163 148 198.148 67 129.574 67S72.333 51.667 41 31 .588 0 .588 0z"/></svg></svg></svg>